<?xml version="1.0" encoding="UTF-8"?>
<svg id="Capa_1" data-name="Capa 1" xmlns="http://www.w3.org/2000/svg" version="1.1" viewBox="0 0 400 86.3">
  <defs>
    <style>
      .cls-1 {
        fill: #fff;
      }

      .cls-1, .cls-2 {
        fill-rule: evenodd;
        stroke-width: 0px;
      }

      .cls-2 {
        fill: #fec14b;
      }
    </style>
  </defs>
  <path class="cls-2" d="M333.6,55.5h11.6v-9.3h-11.6v9.3Z"/>
  <g>
    <path class="cls-1" d="M0,85.3v-12.8h3.1v5.2h5.3v-5.2h3.1v12.8h-3.1v-5.3H3.1v5.3H0Z"/>
    <path class="cls-1" d="M22.9,83.2c2.4,0,3.5-1.9,3.5-4.3s-1.2-4.3-3.5-4.3-3.5,1.9-3.5,4.3,1.2,4.3,3.5,4.3M22.9,72.3c4.3,0,6.6,2.8,6.6,6.6s-2.3,6.6-6.7,6.6-6.6-2.8-6.6-6.6,2.3-6.6,6.7-6.6"/>
    <path class="cls-1" d="M48.7,72.5v12.8h-3v-8.4h0l-2.9,8.4h-2.6l-2.9-8.4h0v8.4h-3v-12.8h4.1l3.1,9.2h0l3.1-9.2h4.1Z"/>
    <path class="cls-1" d="M54,85.3v-12.8h9.4v2.3h-6.3v2.9h5.5v2.2h-5.5v3.1h6.5v2.3h-9.6Z"/>
    <path class="cls-1" d="M76.3,85.3v-12.8h8.3v.9h-7.2v5h6.4v.9h-6.4v5.1h7.4v.9h-8.5Z"/>
    <path class="cls-1" d="M103.1,72.5v12.8h-1.1v-11.3h0l-4.9,11.3h-1l-4.9-11.3h0v11.3h-1.1v-12.8h1.6l4.9,11.4h0l4.9-11.4h1.6Z"/>
    <path class="cls-1" d="M114.6,78.8c1.2,0,2.1-.6,2.1-2s-1-2-2.1-2h-2.7v4h2.7ZM114.9,72.5c2.7,0,4.9,1.5,4.9,4.2s-2.2,4.3-5,4.3h-3v4.2h-3.1v-12.8h6.2Z"/>
    <path class="cls-1" d="M130.4,83.2c2.4,0,3.5-1.9,3.5-4.3s-1.2-4.3-3.5-4.3-3.5,1.9-3.5,4.3,1.2,4.3,3.5,4.3M130.4,72.3c4.3,0,6.6,2.8,6.6,6.6s-2.3,6.6-6.7,6.6-6.6-2.8-6.6-6.6,2.3-6.6,6.7-6.6"/>
    <path class="cls-1" d="M159.4,72.5l-3.8,12.8h-3.3l-2.3-8.7h0l-2.3,8.7h-3.4l-3.8-12.8h3.2l2.4,9.2h0l2.2-9.2h3.3l2.2,9.1h0l2.4-9.1h3.2Z"/>
    <path class="cls-1" d="M163.6,85.3v-12.8h9.4v2.3h-6.3v2.9h5.5v2.2h-5.5v3.1h6.5v2.3h-9.6Z"/>
    <path class="cls-1" d="M180.9,78.1h2.9c1,0,1.8-.5,1.8-1.7s-.8-1.7-1.8-1.7h-2.9v3.3h0ZM183.3,80.3h-2.4v5h-3.1v-12.8h6.3c2.6,0,4.5,1.3,4.5,3.7s-1,2.9-2.5,3.4l2.8,5.6h-3.4l-2.3-5h0Z"/>
    <path class="cls-1" d="M206.8,72.5v12.8h-1.1v-11.3h0l-4.9,11.3h-1l-4.9-11.3h0v11.3h-1.1v-12.8h1.6l4.9,11.4h0l4.9-11.4h1.6Z"/>
    <path class="cls-1" d="M212.8,85.3v-12.8h8.3v.9h-7.2v5h6.4v.9h-6.4v5.1h7.4v.9h-8.5Z"/>
    <path class="cls-1" d="M237,72.5v12.8h-1l-8.4-11.1h0v11.1h-1.1v-12.8h1.1l8.3,10.9h0v-10.9h1.1,0Z"/>
    <path class="cls-1" d="M246.6,85.3v-11.8h-4.9v-.9h11v.9h-4.9v11.8h-1.2Z"/>
    <path class="cls-1" d="M255.5,74.4c0,0,0,.2.2.3.1,0,.3.2.6.2s.6-.2.6-.4-.1-.3-.4-.4h-.6c-.3-.2-.5-.3-.6-.4s-.2-.3-.2-.5c0-.5.4-.9,1.1-.9s.6,0,.8.3c.1,0,.2.2.3.4h-.5s-.3-.2-.6-.2-.5,0-.5.4.1.3.4.4h.5c.3.2.5.3.6.5,0,0,.1.3.1.5,0,.5-.5.9-1.2.9s-.7,0-.9-.3c-.1,0-.2-.2-.3-.5h.5v-.3Z"/>
    <path class="cls-1" d="M260.4,75.2v-2.5l-.8,2.5h-.3l-.8-2.5v2.5h-.4v-2.9h.9l.6,1.9.6-1.9h.9v2.9h-.7Z"/>
  </g>
  <g>
    <path class="cls-1" d="M0,15.1h12.1v5.7c2.8-3.4,6.4-6.5,12.5-6.5s9.8,2.3,12,6.4c3.7-4.1,8.2-6.4,14-6.4,9,0,14.4,5.1,14.4,14.8v26.3h-12.1v-22.5c0-5.4-2.5-8.2-7.1-8.2s-7.3,2.8-7.3,8.2v22.5h-12.1v-22.5c0-5.4-2.5-8.2-7.1-8.2s-7.3,2.8-7.3,8.2v22.5H0V15.1h0Z"/>
    <path class="cls-1" d="M103.4,35.5v-.2c0-5.9-4.5-11.1-11.2-11.1s-11,5-11,11v.2c0,5.9,4.5,11.1,11.2,11.1s11-5,11-11M69.3,35.5v-.2c0-11.6,9.8-21,23.1-21s22.9,9.3,22.9,20.9v.2c0,11.6-9.8,21-23.1,21s-22.9-9.3-22.9-20.9"/>
    <path class="cls-1" d="M152.5,35.3h0c0-6.9-4.7-11.3-10.3-11.3s-10.4,4.4-10.4,11.1h0c0,6.9,4.8,11.3,10.4,11.3s10.3-4.4,10.3-11.1M119.8,35.3h0c0-13.6,9.3-21,19.4-21s10.4,2.8,13.3,6V.5h12.1v55h-12.1v-5.8c-2.9,3.8-7,6.5-13.3,6.5-9.9,0-19.4-7.4-19.4-20.9"/>
    <path class="cls-1" d="M215.6,15.1h12.1v8.1c2.5-5.6,6.4-9.2,13.6-8.9v12h-.6c-8,0-12.9,4.6-12.9,14.2v14.9h-12.1V15.1h-.1Z"/>
    <path class="cls-1" d="M246.2,15.1h12.1v5.7c2.8-3.4,6.4-6.5,12.5-6.5,9.1,0,14.4,5.7,14.4,15v26.1h-12.1v-22.5c0-5.4-2.7-8.2-7.3-8.2s-7.5,2.8-7.5,8.2v22.5h-12.1V15.1h0Z"/>
    <path class="cls-1" d="M290.7,10.7h12.7V.5h-12.7v10.2Z"/>
    <path class="cls-1" d="M291,55.4h12.1V15.1h-12.1v40.4h0Z"/>
    <path class="cls-1" d="M190.1,23.5c4.8,0,7.9,3.1,8.8,7.7h-17.8c1.2-4.7,4.3-7.7,9-7.7M210.8,36.2c0-11.4-6.5-21.9-20.7-21.9s-21,9.5-21,21v.2c0,12.3,9.4,20.9,22.2,20.9s13.4-2.9,17.4-7.5l-6.9-5.8c-3.3,2.9-6.3,4.1-10.3,4.1s-9.2-2.7-10.4-7.9h29.6c0-1.1.2-2.1.2-3"/>
    <path class="cls-1" d="M345.2,23.1v-8.1h-36.3v9.3h21.3l-22,23v8.1h6s31-32.3,31-32.3Z"/>
    <path class="cls-1" d="M368.7,47.2h-.4l7.8,8.1c4-1.2,7.3-3.5,9.8-6.5l-6.9-5.8c-3.3,2.9-6.3,4.1-10.3,4.1"/>
    <path class="cls-1" d="M358.3,31.2c1.2-4.7,4.3-7.7,9-7.7s7.9,3.1,8.8,7.7h-17.8ZM367.4,14.3c-8.9,0-15.9,4.9-19.1,12l12.4,12.9h27.2c0-1.1.2-2.1.2-3,0-11.4-6.5-21.9-20.7-21.9h0Z"/>
    <path class="cls-1" d="M391.5,16.7c-.2-.5-.5-.6-1-.6s-.8.2-.8.5.2.5.8.6c.9.2,1.2.3,1.5.5.5.3.7.8.7,1.3s-.3,1.1-.8,1.5c-.4.2-.9.4-1.5.4s-1.2-.2-1.7-.5c-.4-.3-.5-.5-.7-1.1l1.2-.3c.2.5.5.8,1.2.8s.9-.2.9-.6-.2-.5-1-.6c-.6-.1-1-.2-1.3-.4-.5-.3-.7-.7-.7-1.3s.2-.9.6-1.3c.4-.3.9-.5,1.5-.5s1.1.1,1.5.4c.3.2.5.4.6.9l-1.1.4h0Z"/>
    <path class="cls-1" d="M394.8,16.2v4.5h-1.1v-5.5h2.1l1,3.3,1.1-3.3h2.1v5.5h-1.4v-4.5l-1.5,4.5h-.9l-1.4-4.5h0Z"/>
  </g>
</svg>